<svg xmlns="http://www.w3.org/2000/svg" viewBox="0 0 512 512"><linearGradient id="a" x1="232.545" x2="514.575" y1="13.079" y2="295.109" gradientUnits="userSpaceOnUse"><stop offset="0" stop-color="#8DC63F"/><stop offset="1" stop-color="#27AAE1"/></linearGradient><path fill="url(#a)" d="M498.017 81.647H168.88c-6.563 0-11.932 5.4-11.932 12v45.08c15.99 1.598 31.537 5.583 46.4 11.906 19.133 8.14 36.312 19.787 51.058 34.62 14.746 14.832 26.327 32.11 34.42 51.355 6.246 14.853 10.195 30.39 11.804 46.36h81.75c-.012.107-.03.21-.03.32 0 43.873 106.59 53.784 95.722 46.398-24.44-16.61-44.17-26.53-27.575-46.32.112-.134.204-.266.278-.398h47.242c6.562 0 11.93-5.4 11.93-12V93.648c0-6.6-5.368-12-11.93-12zM450.3 242.93H340.215c-4.97 0-9-4.03-9-9s4.03-9 9-9H450.3c4.972 0 9 4.028 9 9s-4.03 9-9 9zm0-50H311.065c-4.97 0-9-4.03-9-9s4.03-9 9-9H450.3c4.97 0 9 4.028 9 9s-4.03 9-9 9zm0-50H263.9c-4.97 0-9-4.03-9-9s4.03-9 9-9H450.3c4.97 0 9 4.028 9 9s-4.03 9-9 9z"/><linearGradient id="b" x1="219.957" x2="25.38" y1="414.846" y2="220.268" gradientUnits="userSpaceOnUse"><stop offset="0" stop-color="#FEDB29"/><stop offset="1" stop-color="#D76595"/></linearGradient><path fill="url(#b)" d="M140.714 161.925c-75.987 0-137.587 61.6-137.587 137.587 0 49.563 26.212 93 65.525 117.22 4.803 21.684-15.595 25.195-41.96 33.28-12.187 3.737 84.19 27.72 101.383-13.497 4.163.38 8.377.584 12.64.584 75.987 0 137.587-61.6 137.587-137.588s-61.6-137.587-137.588-137.587zm66.057 196.587H74.657c-4.97 0-9-4.03-9-9s4.03-9 9-9H206.77c4.972 0 9 4.03 9 9s-4.028 9-9 9zm0-50H74.657c-4.97 0-9-4.03-9-9s4.03-9 9-9H206.77c4.972 0 9 4.03 9 9s-4.028 9-9 9zm0-50H74.657c-4.97 0-9-4.03-9-9s4.03-9 9-9H206.77c4.972 0 9 4.03 9 9s-4.028 9-9 9z"/></svg>