<?xml version="1.0" standalone="no"?>
<!DOCTYPE svg PUBLIC "-//W3C//DTD SVG 20010904//EN"
 "http://www.w3.org/TR/2001/REC-SVG-20010904/DTD/svg10.dtd">
<svg version="1.0" xmlns="http://www.w3.org/2000/svg"
 width="16.000000pt" height="16.000000pt" viewBox="0 0 16.000000 16.000000"
 preserveAspectRatio="xMidYMid meet">
<metadata>
Created by potrace 1.11, written by Peter Selinger 2001-2013
</metadata>
<g transform="translate(0.000000,16.000000) scale(0.002286,-0.002286)"
fill="#000000" stroke="none">
<path d="M2261 5876 c-45 -13 -99 -70 -108 -114 -3 -20 -7 -176 -7 -347 l-1
-309 45 -8 c25 -4 61 -10 80 -12 58 -8 210 -43 295 -68 79 -24 311 -114 330
-128 6 -5 42 -25 80 -45 169 -91 341 -220 485 -364 175 -176 282 -316 391
-516 117 -211 214 -499 243 -720 3 -22 9 -57 12 -77 l6 -38 559 0 559 0 1 -27
c2 -74 45 -172 106 -240 108 -119 319 -233 573 -307 94 -28 83 -25 269 -61
145 -27 324 -40 353 -24 21 11 31 3 -132 113 -41 28 -76 54 -78 58 -2 5 -9 8
-15 8 -12 0 -117 89 -160 135 -85 92 -91 193 -17 299 l31 46 334 0 c359 0 389
4 431 53 45 53 44 13 44 1329 l0 1250 -21 38 c-12 21 -40 48 -63 61 l-41 23
-2276 1 c-1344 0 -2290 -4 -2308 -9z m3948 -599 c70 -36 89 -132 36 -187 -16
-17 -42 -34 -57 -38 -16 -4 -610 -7 -1321 -6 -1216 0 -1294 1 -1319 18 -39 26
-60 64 -60 107 1 44 18 73 59 100 27 18 80 19 1333 19 1016 0 1310 -3 1329
-13z m6 -687 c61 -37 79 -114 41 -172 -38 -57 7 -55 -1049 -55 -1072 -1 -1018
-4 -1058 61 -35 58 -16 130 44 166 31 19 60 20 1010 20 966 0 980 0 1012 -20z
m7 -685 c31 -23 58 -72 58 -107 0 -34 -35 -85 -71 -103 -28 -15 -108 -17 -803
-16 -457 0 -782 4 -797 9 -68 27 -98 114 -61 174 19 31 46 51 80 60 7 2 362 3
790 3 759 0 778 -1 804 -20z"/>
<path d="M1858 4785 c-2 -2 -41 -5 -88 -8 -47 -4 -94 -8 -105 -10 -11 -3 -42
-8 -70 -11 -27 -4 -93 -18 -145 -32 -525 -139 -963 -493 -1206 -975 -76 -152
-154 -385 -169 -510 -3 -23 -7 -45 -10 -48 -15 -25 -26 -390 -14 -471 4 -25
10 -65 13 -90 53 -389 251 -780 537 -1060 84 -82 143 -131 240 -201 53 -38 99
-78 102 -89 10 -37 -1 -126 -18 -161 -49 -95 -157 -151 -470 -245 -109 -32
-109 -32 -95 -49 11 -13 111 -50 159 -60 12 -2 30 -6 39 -9 9 -3 33 -8 52 -11
19 -3 42 -8 50 -10 14 -3 82 -11 184 -21 63 -6 312 -5 338 0 13 3 41 8 63 10
214 23 401 125 480 261 l26 43 152 0 c175 0 312 14 442 45 208 51 394 127 560
229 363 225 641 564 785 958 50 138 78 262 106 465 6 43 6 301 0 350 -19 159
-24 186 -51 295 -20 80 -54 183 -82 250 -3 8 -7 17 -8 20 -6 23 -83 173 -110
216 -19 30 -35 59 -35 64 0 6 -4 10 -10 10 -5 0 -10 5 -10 10 0 24 -179 241
-263 318 -81 76 -105 96 -177 151 -92 70 -217 145 -331 199 -82 38 -266 105
-319 116 -14 3 -69 14 -122 25 -54 11 -128 23 -165 26 -81 7 -251 13 -255 10z
m1036 -1096 c56 -44 70 -105 36 -162 -38 -64 6 -62 -1012 -61 -1015 0 -959 -4
-998 60 -36 58 -19 131 39 167 24 15 115 16 967 17 940 0 941 0 968 -21z m-6
-679 c34 -21 62 -71 62 -111 0 -31 -34 -81 -67 -100 -25 -15 -117 -17 -948
-17 -553 0 -932 3 -951 9 -46 14 -76 51 -81 102 -6 52 14 89 62 118 29 18 73
19 960 19 914 0 931 -1 963 -20z m-2 -684 c76 -46 85 -136 18 -193 -37 -33
-38 -33 -143 -33 -58 -1 -479 -1 -934 -1 -909 0 -873 -2 -910 60 -43 73 2 171
84 183 13 1 436 3 939 3 874 0 916 -1 946 -19z"/>
</g>
</svg>
